<svg id="ehw4i6ai7ww81" xmlns="http://www.w3.org/2000/svg" xmlns:xlink="http://www.w3.org/1999/xlink" viewBox="0 0 1029 1019" shape-rendering="geometricPrecision" text-rendering="geometricPrecision" width="1029" height="1019"><path id="ehw4i6ai7ww82" d="M523.002283,530.941237C563.532283,709.921237,604.668578,481.826453,645.138578,660.836453C634.128578,661.006453,623.108578,661.116453,612.098578,661.216453C582.608578,529.496453,557.415127,764.760967,523.002283,630.629545C493.422283,762.239545,464.498578,529.246453,434.858578,660.846453C423.808578,660.836453,412.768578,660.846453,401.718578,660.836453C442.328578,481.816453,482.382283,709.961237,523.002283,530.941237Z" fill="rgb(71,70,65)" fill-opacity="0" stroke="rgb(71,70,65)" stroke-width="1" stroke-opacity="0"/><path id="ehw4i6ai7ww83" d="M370.860000,705.900000C376.590000,705.970000,382.340000,705.730000,388.070000,705.980000C393.140000,706.280000,398.160000,708.810000,400.460000,713.500000C402.780000,718.030000,402.400000,723.060000,402.470000,728C402.390000,733.640000,402.840000,738.980000,400.140000,744.150000C397.750000,748.660000,393.010000,750.930000,388.060000,751.240000C382.340000,751.470000,376.590000,751.260000,370.870000,751.270000C370.800000,736.150000,370.830000,721.020000,370.860000,705.900000Z" transform="matrix(1 0 0 1 -1.81704700000000 0)" fill="rgb(188,164,77)" fill-opacity="0" stroke="rgb(188,164,77)" stroke-width="4" stroke-opacity="0" stroke-dashoffset="-145.890000" stroke-dasharray="145,89"/><path id="ehw4i6ai7ww84" d="M446.770000,711.250000C450.750000,715.880000,450.060000,722.330000,450.170000,728C450.050000,733.300000,450.720000,740.050000,447.710000,744.680000C443,751.990000,432.160000,753.840000,425.080000,748.950000C421.430000,746.550000,419.060000,742.970000,418.620000,738.580000C418.080000,732.750000,418.230000,726.820000,418.410000,720.970000C418.530000,716.770000,419.710000,712.800000,422.930000,709.940000C429.440000,703.620000,441.010000,704.180000,446.770000,711.250000Z" fill="rgb(190,166,77)" fill-opacity="0" stroke="rgb(197,171,76)" stroke-width="4" stroke-opacity="0" stroke-dashoffset="-129.310000" stroke-dasharray="129,31"/><path id="ehw4i6ai7ww85" d="M467.720000,705.830000C469.390000,705.890000,471.070000,705.960000,472.740000,706.040000C477.590000,716.570000,482.490000,727.090000,487.260000,737.660000C492.340000,727.160000,496.720000,716.340000,501.770000,705.830000C503.380000,705.870000,504.980000,705.910000,506.590000,705.960000C506.600000,721.070000,506.680000,736.190000,506.550000,751.300000C504.930000,751.290000,503.310000,751.280000,501.680000,751.270000C501.530000,740.020000,501.750000,728.770000,501.560000,717.520000C497.520000,726.430000,493.430000,735.320000,489.340000,744.220000C487.920000,744.190000,486.490000,744.170000,485.070000,744.140000C480.980000,735.310000,476.980000,726.440000,472.780000,717.670000C472.530000,728.880000,472.870000,740.110000,472.580000,751.330000C470.970000,751.310000,469.360000,751.300000,467.750000,751.280000C467.600000,736.130000,467.690000,720.980000,467.720000,705.830000Z" fill="rgb(190,166,77)" fill-opacity="0" stroke="rgb(190,166,77)" stroke-width="3" stroke-opacity="0" stroke-linecap="round" stroke-dashoffset="310.350000" stroke-dasharray="310,35"/><path id="ehw4i6ai7ww86" d="M536.900000,706.040000C538.260000,705.930000,539.620000,705.860000,540.980000,705.850000C546.510000,720.980000,552.160000,736.060000,557.580000,751.230000C555.870000,751.280000,554.150000,751.320000,552.440000,751.370000C551.080000,748.040000,549.870000,744.660000,548.750000,741.240000C542.160000,741.150000,535.570000,741.150000,528.980000,741.240000C527.810000,744.600000,526.620000,747.960000,525.390000,751.310000C523.630000,751.290000,521.870000,751.280000,520.110000,751.260000C525.020000,737.530000,530.200000,723.900000,535.160000,710.180000C535.680000,708.790000,536.190000,707.340000,536.900000,706.040000Z" fill="rgb(190,166,77)" fill-opacity="0" stroke="rgb(190,166,77)" stroke-width="3" stroke-opacity="0" stroke-dashoffset="152.320000" stroke-dasharray="152,32"/><path id="ehw4i6ai7ww87" d="M570.850000,706.060000C572.610000,706.030000,574.370000,706,576.130000,705.980000C576.130000,721.070000,576.170000,736.160000,576.100000,751.240000C574.440000,751.280000,572.780000,751.310000,571.120000,751.330000C570.500000,736.280000,571.030000,721.130000,570.850000,706.060000Z" fill="rgb(190,166,77)" fill-opacity="0" stroke="rgb(190,166,77)" stroke-width="3" stroke-opacity="0" stroke-dashoffset="100.800000" stroke-dasharray="100,80"/><path id="ehw4i6ai7ww88" d="M596.710166,705.920000C598.260166,705.910000,599.810166,705.910000,601.360166,705.900000C609.290166,717.830000,617.270166,729.710000,625.150166,741.670000C625.380166,729.760000,625.160166,717.840000,625.300166,705.930000C626.930166,705.910000,628.570166,705.890000,630.200166,705.880000C630.260166,721.010000,630.320166,736.160000,630.170166,751.290000C628.650166,751.300000,627.120166,751.310000,625.590166,751.310000C617.580166,739.360000,609.620166,727.370000,601.720166,715.340000C601.530166,727.340000,601.760166,739.340000,601.600166,751.340000C599.960166,751.290000,598.310166,751.230000,596.670166,751.170000C596.660166,736.090000,596.590166,721,596.710166,705.920000Z" fill="rgb(190,166,77)" fill-opacity="0" stroke="rgb(190,166,77)" stroke-width="0" stroke-opacity="0" stroke-dashoffset="267.590000" stroke-dasharray="267,59"/><path id="ehw4i6ai7ww89" d="M648.180000,705.910000C657.550000,705.880000,666.930000,705.890000,676.310000,705.910000C676.300000,707.390000,676.300000,708.880000,676.300000,710.360000C668.600000,710.460000,660.910000,710.350000,653.220000,710.430000C653.180000,715.650000,653.170000,720.880000,653.240000,726.100000C659.880000,726.200000,666.510000,726.010000,673.140000,726.260000C673.030000,727.710000,672.910000,729.170000,672.790000,730.620000C666.270000,730.680000,659.760000,730.610000,653.240000,730.670000C653.160000,736.010000,653.210000,741.350000,653.200000,746.690000C660.900000,746.730000,668.590000,746.690000,676.290000,746.710000C676.290000,748.240000,676.280000,749.780000,676.280000,751.310000C666.900000,751.340000,657.520000,751.300000,648.140000,751.310000C647.640000,743.560000,648.020000,735.770000,647.890000,728C648.010000,720.640000,647.610000,713.240000,648.180000,705.910000Z" fill="rgb(190,166,77)" fill-opacity="0" stroke="rgb(190,166,77)" stroke-width="3" stroke-opacity="0" stroke-dashoffset="232.420000" stroke-dasharray="232,42"/><path id="ehw4i6ai7ww810" d="M376.240000,712.297047C381.650000,712.337047,389.530000,711.097047,393.880000,714.957047C397.850000,718.377047,397.380000,725.077047,397.490000,729.817047C397.390000,734.537047,397.760000,741.507047,394.520000,745.327047C390.140000,750.007047,381.910000,748.177047,376.130000,748.527047C376.170000,736.467047,375.870000,724.347047,376.240000,712.297047Z" fill="rgb(255,255,255)" stroke="none" stroke-width="1"/><path id="ehw4i6ai7ww811" d="M432.220000,710.240000C437.130000,709.330000,442.570000,712.030000,444.180000,716.880000C445.480000,723.350000,445.410000,733.570000,444.250000,740.080000C442.020000,747.380000,432.160000,749.380000,426.810000,744.190000C423.530000,741.230000,423.590000,737.110000,423.390000,733.030000C423.400000,728.080000,423.060000,722.900000,423.970000,718.020000C424.670000,713.940000,428.300000,711,432.220000,710.240000Z" fill="rgb(255,255,255)" stroke="none" stroke-width="1"/><path id="ehw4i6ai7ww812" d="M538.950000,713.500000C541.730000,721.160000,544.510000,728.850000,547.050000,736.600000C541.660000,736.660000,536.260000,736.660000,530.870000,736.590000C533.200000,728.790000,536.160000,721.140000,538.950000,713.500000Z" fill="rgb(255,255,255)" fill-opacity="0" stroke="rgb(190,166,77)" stroke-width="2" stroke-opacity="0" stroke-dashoffset="65.130000" stroke-dasharray="65,13"/><path id="ehw4i6ai7ww813" d="M182.830000,792.410000C186.160000,792.410000,189.500000,792.410000,192.830000,792.400000C192.870000,809.110000,192.820000,825.830000,192.860000,842.540000C199.930000,842.550000,207.010000,842.510000,214.080000,842.560000C214.080000,845.890000,214.080000,849.220000,214.070000,852.550000C203.660000,852.540000,193.250000,852.560000,182.850000,852.550000C182.800000,832.500000,182.840000,812.460000,182.830000,792.410000Z" opacity="0" fill="rgb(71,70,65)" stroke="rgb(71,70,65)" stroke-width="1" stroke-dashoffset="182.710000" stroke-dasharray="182,71"/><path id="ehw4i6ai7ww814" d="M257.720000,792.410000C257.760000,795.750000,257.760000,799.090000,257.750000,802.430000C250.680000,802.420000,243.600000,802.410000,236.530000,802.440000C236.510000,807.420000,236.520000,812.410000,236.530000,817.390000C241.980000,817.400000,247.430000,817.390000,252.880000,817.390000C252.910000,820.730000,252.910000,824.070000,252.890000,827.400000C247.430000,827.400000,241.980000,827.390000,236.520000,827.410000C236.530000,832.450000,236.520000,837.490000,236.520000,842.520000C243.600000,842.560000,250.680000,842.510000,257.750000,842.560000C257.750000,845.890000,257.750000,849.210000,257.760000,852.540000C247.340000,852.560000,236.920000,852.560000,226.500000,852.540000C226.500000,832.500000,226.510000,812.460000,226.500000,792.420000C236.910000,792.400000,247.320000,792.410000,257.720000,792.410000Z" opacity="0" fill="rgb(71,70,65)" stroke="none" stroke-width="1"/><path id="ehw4i6ai7ww815" d="M305.080000,798.900000C302.670000,801.170000,300.250000,803.420000,297.830000,805.670000C293.390000,801.500000,286.640000,800.590000,281.200000,803.250000C277.830000,804.870000,276.310000,810.020000,279.220000,812.760000C283.570000,817.010000,291.240000,817.510000,296.630000,820.350000C302.150000,823.020000,307.240000,827.630000,307.880000,834.060000C308.540000,840.240000,305.340000,845.860000,300.330000,849.300000C289.620000,856.790000,272.210000,853.050000,267.120000,840.470000C270.190000,839.280000,273.290000,838.140000,276.400000,837.040000C280.080000,843.790000,290.510000,845.180000,295.950000,839.930000C298.030000,837.920000,298.690000,834.670000,296.630000,832.390000C293.420000,828.850000,287.840000,827.830000,283.490000,826.330000C278.440000,824.630000,272.760000,821.770000,269.830000,817.120000C265.360000,809.990000,267.900000,799.490000,275.160000,795.170000C284.260000,789.600000,297.760000,790.820000,305.080000,798.900000Z" opacity="0" fill="rgb(71,70,65)" stroke="none" stroke-width="1"/><path id="ehw4i6ai7ww816" d="M390.770000,792.410000C390.770000,812.460000,390.790000,832.500000,390.760000,852.550000C387.430000,852.550000,384.090000,852.550000,380.750000,852.540000C380.740000,844.170000,380.750000,835.810000,380.740000,827.450000C373.070000,827.450000,365.390000,827.420000,357.720000,827.470000C357.700000,835.830000,357.740000,844.190000,357.700000,852.550000C354.360000,852.550000,351.030000,852.550000,347.700000,852.540000C347.700000,832.530000,347.700000,812.520000,347.700000,792.510000C351.040000,792.490000,354.370000,792.490000,357.710000,792.490000C357.730000,800.800000,357.690000,809.110000,357.720000,817.420000C365.400000,817.440000,373.070000,817.430000,380.740000,817.430000C380.750000,809.090000,380.740000,800.760000,380.740000,792.420000C384.080000,792.400000,387.430000,792.400000,390.770000,792.410000Z" opacity="0" fill="rgb(71,70,65)" stroke="none" stroke-width="1"/><path id="ehw4i6ai7ww817" d="M440.030000,792.400000C443.970000,792.420000,447.910000,792.410000,451.850000,792.410000C451.870000,812.460000,451.870000,832.510000,451.840000,852.550000C448.490000,852.550000,445.140000,852.550000,441.790000,852.550000C441.790000,847.960000,441.800000,843.360000,441.790000,838.760000C435.380000,838.740000,428.970000,838.770000,422.560000,838.740000C419.570000,843.310000,416.730000,847.960000,413.770000,852.540000C409.830000,852.570000,405.880000,852.570000,401.940000,852.510000C414.630000,832.470000,427.300000,812.410000,440.030000,792.400000Z" opacity="0" fill="rgb(71,70,65)" stroke="none" stroke-width="1"/><path id="ehw4i6ai7ww818" d="M477.770000,792.360000C477.860000,805.600000,477.690000,818.860000,477.840000,832.090000C477.930000,837.640000,482.530000,842.400000,487.980000,843.040000C494.400000,843.880000,500.730000,838.570000,500.800000,832.050000C500.950000,818.840000,500.820000,805.600000,500.860000,792.380000C504.200000,792.370000,507.530000,792.370000,510.870000,792.360000C510.860000,805.910000,510.960000,819.490000,510.830000,833.040000C510.340000,845,498.830000,854.490000,486.980000,852.980000C478.140000,852.200000,470.430000,845.390000,468.330000,836.810000C467.500000,833.390000,467.730000,829.520000,467.710000,826C467.720000,814.790000,467.730000,803.590000,467.710000,792.380000C471.060000,792.380000,474.410000,792.370000,477.770000,792.360000Z" opacity="0" fill="rgb(71,70,65)" stroke="none" stroke-width="1"/><path id="ehw4i6ai7ww819" d="M524.410000,792.500000C536.060000,792.290000,547.770000,792.460000,559.440000,792.420000C559.430000,795.760000,559.430000,799.090000,559.430000,802.420000C555.240000,802.420000,551.050000,802.420000,546.870000,802.450000C546.840000,819.150000,546.860000,835.850000,546.850000,852.550000C543.520000,852.550000,540.180000,852.550000,536.850000,852.550000C536.800000,835.840000,536.860000,819.130000,536.820000,802.420000C532.650000,802.420000,528.490000,802.420000,524.320000,802.420000C524.320000,799.120000,524.150000,795.790000,524.410000,792.500000Z" opacity="0" fill="rgb(71,70,65)" stroke="none" stroke-width="1"/><path id="ehw4i6ai7ww820" d="M607.670000,798.860000C605.230000,801.110000,602.810000,803.370000,600.390000,805.630000C595.870000,801.430000,588.900000,800.560000,583.470000,803.410000C580.170000,805.320000,578.910000,810.270000,581.990000,812.990000C585.910000,816.620000,592.580000,817.440000,597.420000,819.570000C602.780000,821.860000,607.910000,825.410000,609.810000,831.180000C611.950000,837.770000,609.090000,844.660000,603.700000,848.700000C593.170000,856.940000,574.800000,853.410000,569.720000,840.470000C572.800000,839.250000,575.900000,838.090000,579.040000,837.020000C582.550000,843.910000,593.490000,845.220000,598.710000,839.690000C600.560000,837.740000,601.220000,834.760000,599.360000,832.570000C596.690000,829.440000,591.780000,828.140000,587.990000,826.950000C582.180000,825.190000,576.170000,822.560000,572.580000,817.430000C567.770000,810.210000,570.440000,799.240000,578.010000,794.990000C587.150000,789.600000,600.320000,790.950000,607.670000,798.860000Z" opacity="0" fill="rgb(71,70,65)" stroke="none" stroke-width="1"/><path id="ehw4i6ai7ww821" d="M650.310000,792.480000C653.600000,792.270000,656.910000,792.440000,660.200000,792.430000C660.220000,809.130000,660.210000,825.840000,660.210000,842.540000C667.280000,842.540000,674.350000,842.520000,681.420000,842.550000C681.420000,845.880000,681.420000,849.210000,681.420000,852.540000C671.020000,852.570000,660.620000,852.540000,650.220000,852.550000C650.250000,832.570000,650.060000,812.450000,650.310000,792.480000Z" opacity="0" fill="rgb(71,70,65)" stroke="none" stroke-width="1"/><path id="ehw4i6ai7ww822" d="M719.070000,792.400000C729.490000,792.430000,739.900000,792.390000,750.310000,792.420000C750.310000,795.760000,750.310000,799.090000,750.310000,802.420000C743.260000,802.420000,736.200000,802.420000,729.150000,802.430000C729.130000,807.410000,729.130000,812.400000,729.130000,817.380000C734.580000,817.420000,740.020000,817.370000,745.470000,817.410000C745.470000,820.740000,745.470000,824.070000,745.460000,827.400000C740.020000,827.400000,734.580000,827.410000,729.150000,827.390000C729.120000,832.440000,729.130000,837.480000,729.140000,842.530000C736.190000,842.560000,743.250000,842.520000,750.300000,842.550000C750.310000,845.880000,750.310000,849.210000,750.300000,852.540000C739.890000,852.560000,729.470000,852.550000,719.060000,852.540000C719.070000,832.500000,719.030000,812.450000,719.070000,792.400000Z" opacity="0" fill="rgb(71,70,65)" stroke="none" stroke-width="1"/><path id="ehw4i6ai7ww823" d="M763.280000,792.450000C766.590000,792.240000,769.930000,792.400000,773.250000,792.380000C773.270000,805.260000,773.240000,818.160000,773.250000,831.040000C772.820000,839.390000,781.490000,845.510000,789.210000,842.210000C793.660000,840.270000,796.490000,835.930000,796.320000,831.030000C796.360000,818.150000,796.280000,805.250000,796.340000,792.370000C799.690000,792.370000,803.030000,792.370000,806.380000,792.380000C806.360000,805.590000,806.420000,818.810000,806.360000,832.020000C806.390000,841.850000,798.820000,850.710000,789.270000,852.650000C782.310000,854.060000,774.980000,852.140000,769.880000,847.140000C765.370000,842.950000,763.060000,837.180000,763.180000,831.030000C763.250000,818.190000,763.030000,805.290000,763.280000,792.450000Z" opacity="0" fill="rgb(71,70,65)" stroke="none" stroke-width="1"/><path id="ehw4i6ai7ww824" d="M816.690000,792.440000C820.570000,792.400000,824.440000,792.400000,828.320000,792.420000C832.420000,799.300000,836.410000,806.250000,840.570000,813.090000C844.660000,806.210000,848.700000,799.300000,852.800000,792.420000C856.670000,792.400000,860.540000,792.400000,864.410000,792.440000C858.390000,802.620000,852.390000,812.810000,846.380000,823C852.180000,832.850000,857.970000,842.690000,863.800000,852.510000C859.930000,852.560000,856.070000,852.560000,852.200000,852.550000C848.230000,846.060000,844.520000,839.420000,840.530000,832.940000C836.630000,839.450000,832.810000,846.010000,828.940000,852.540000C825.050000,852.570000,821.160000,852.560000,817.270000,852.520000C823.120000,842.700000,828.920000,832.850000,834.710000,823C828.730000,812.800000,822.690000,802.630000,816.690000,792.440000Z" opacity="0" fill="rgb(71,70,65)" stroke="none" stroke-width="1"/><path id="ehw4i6ai7ww825" d="M693.920000,792.510000C697.240000,792.490000,700.570000,792.490000,703.890000,792.510000C703.890000,812.520000,703.890000,832.530000,703.900000,852.550000C700.580000,852.550000,697.260000,852.550000,693.940000,852.550000C693.890000,832.540000,693.920000,812.520000,693.920000,792.510000Z" opacity="0" fill="rgb(71,70,65)" stroke="none" stroke-width="1"/><path id="ehw4i6ai7ww826" d="M441.780000,808.330000C441.790000,815.130000,441.810000,821.930000,441.780000,828.730000C437.470000,828.750000,433.160000,828.750000,428.840000,828.730000C433.180000,821.940000,437.460000,815.120000,441.780000,808.330000Z" fill="rgb(255,255,255)" stroke="none" stroke-width="1"/><path id="ehw4i6ai7ww827" d="M516.450000,886.640000C528.240000,883.710000,541.500000,888.510000,548.770000,898.210000C552.940000,903.580000,555.150000,910.230000,555.370000,917C555.420000,926.720000,550.970000,936.280000,543.280000,942.270000C536.340000,947.780000,526.910000,950.270000,518.190000,948.580000C511.060000,947.400000,504.490000,943.690000,499.770000,938.230000C493.530000,931.220000,490.720000,921.260000,492.410000,912.020000C494.460000,899.670000,504.270000,889.410000,516.450000,886.640000Z" opacity="0" fill="rgb(205,198,170)" stroke="none" stroke-width="1"/><script><![CDATA[!function(t,n){"object"==typeof exports&&"undefined"!=typeof module?module.exports=n():"function"==typeof define&&define.amd?define(n):(t=t||self).__SVGATOR_PLAYER__=n()}(this,(function(){"use strict";function t(n){return(t="function"==typeof Symbol&&"symbol"==typeof Symbol.iterator?function(t){return typeof t}:function(t){return t&&"function"==typeof Symbol&&t.constructor===Symbol&&t!==Symbol.prototype?"symbol":typeof t})(n)}function n(t,n){if(!(t instanceof n))throw new TypeError("Cannot call a class as a function")}function r(t,n){for(var r=0;r<n.length;r++){var e=n[r];e.enumerable=e.enumerable||!1,e.configurable=!0,"value"in e&&(e.writable=!0),Object.defineProperty(t,e.key,e)}}function e(t,n,e){return n&&r(t.prototype,n),e&&r(t,e),t}var i=1e-5,u=Math.abs;function o(t){return t}function a(t,n,r){var e=1-r;return 3*r*e*(t*e+n*r)+r*r*r}function l(){var t=arguments.length>0&&void 0!==arguments[0]?arguments[0]:0,n=arguments.length>1&&void 0!==arguments[1]?arguments[1]:0,r=arguments.length>2&&void 0!==arguments[2]?arguments[2]:1,e=arguments.length>3&&void 0!==arguments[3]?arguments[3]:1;return t<0||t>1||r<0||r>1?null:u(t-n)<=i&&u(r-e)<=i?o:function(o){if(o<=0)return t>0?o*n/t:0===n&&r>0?o*e/r:0;if(o>=1)return r<1?1+(o-1)*(e-1)/(r-1):1===r&&t<1?1+(o-1)*(n-1)/(t-1):1;for(var l,f=0,s=1;f<s;){var c=a(t,r,l=(f+s)/2);if(u(o-c)<i)break;c<o?f=l:s=l}return a(n,e,l)}}function f(){return 1}function s(t){return 1===t?1:0}function c(){var t=arguments.length>0&&void 0!==arguments[0]?arguments[0]:1,n=arguments.length>1&&void 0!==arguments[1]?arguments[1]:0;if(1===t){if(0===n)return s;if(1===n)return f}var r=1/t;return function(t){return t>=1?1:(t+=n*r)-t%r}}function v(t){var n=arguments.length>1&&void 0!==arguments[1]?arguments[1]:2;if(Number.isInteger(t))return t;var r=Math.pow(10,n);return Math.round(t*r)/r}var h=Math.PI/180;function y(t,n,r){return t>=.5?r:n}function d(t,n,r){return 0===t||n===r?n:t*(r-n)+n}function g(t,n,r){var e=d(t,n,r);return e<=0?0:e}function m(t,n,r){return 0===t?n:1===t?r:{x:d(t,n.x,r.x),y:d(t,n.y,r.y)}}function p(t,n,r){return 0===t?n:1===t?r:{x:g(t,n.x,r.x),y:g(t,n.y,r.y)}}function b(t,n,r){var e=function(t,n,r){return Math.round(d(t,n,r))}(t,n,r);return e<=0?0:e>=255?255:e}function w(t,n,r){return 0===t?n:1===t?r:{r:b(t,n.r,r.r),g:b(t,n.g,r.g),b:b(t,n.b,r.b),a:d(t,null==n.a?1:n.a,null==r.a?1:r.a)}}function A(t,n,r){if(0===t)return n;if(1===t)return r;var e=n.length;if(e!==r.length)return y(t,n,r);for(var i=[],u=0;u<e;u++)i.push(w(t,n[u],r[u]));return i}function x(t,n,r){var e=n.length;if(e!==r.length)return y(t,n,r);for(var i=new Array(e),u=0;u<e;u++)i[u]=d(t,n[u],r[u]);return i}function k(t,n){for(var r=[],e=0;e<t;e++)r.push(n);return r}function S(t,n){if(--n<=0)return t;var r=(t=Object.assign([],t)).length;do{for(var e=0;e<r;e++)t.push(t[e])}while(--n>0);return t}var _=6,M=/\.0+$/g;function I(t){return Number.isInteger(t)?t+"":t.toFixed(_).replace(M,"")}function E(t){var n=arguments.length>1&&void 0!==arguments[1]?arguments[1]:" ";return t&&t.length?t.map(I).join(n):""}function F(t){return I(t.x)+","+I(t.y)}function B(t){return t?null==t.a||t.a>=1?"rgb("+t.r+","+t.g+","+t.b+")":"rgba("+t.r+","+t.g+","+t.b+","+t.a+")":"transparent"}var j={f:null,i:p,u:function(t,n){return function(r){var e=n(r);t.setAttribute("rx",I(e.x)),t.setAttribute("ry",I(e.y))}}},q={f:null,i:function(t,n,r){return 0===t?n:1===t?r:{width:g(t,n.width,r.width),height:g(t,n.height,r.height)}},u:function(t,n){return function(r){var e=n(r);t.setAttribute("width",I(e.width)),t.setAttribute("height",I(e.height))}}},P=Math.sin,O=Math.cos,z=Math.acos,L=Math.asin,C=Math.tan,R=Math.atan2,T=Math.PI/180,V=180/Math.PI,D=Math.sqrt,N=function(){function t(){var r=arguments.length>0&&void 0!==arguments[0]?arguments[0]:1,e=arguments.length>1&&void 0!==arguments[1]?arguments[1]:0,i=arguments.length>2&&void 0!==arguments[2]?arguments[2]:0,u=arguments.length>3&&void 0!==arguments[3]?arguments[3]:1,o=arguments.length>4&&void 0!==arguments[4]?arguments[4]:0,a=arguments.length>5&&void 0!==arguments[5]?arguments[5]:0;n(this,t),this.m=[r,e,i,u,o,a],this.i=null,this.w=null,this.s=null}return e(t,[{key:"point",value:function(t,n){var r=this.m;return{x:r[0]*t+r[2]*n+r[4],y:r[1]*t+r[3]*n+r[5]}}},{key:"translateSelf",value:function(){var t=arguments.length>0&&void 0!==arguments[0]?arguments[0]:0,n=arguments.length>1&&void 0!==arguments[1]?arguments[1]:0;if(!t&&!n)return this;var r=this.m;return r[4]+=r[0]*t+r[2]*n,r[5]+=r[1]*t+r[3]*n,this.w=this.s=this.i=null,this}},{key:"rotateSelf",value:function(){var t=arguments.length>0&&void 0!==arguments[0]?arguments[0]:0;if(t%=360){var n=P(t*=T),r=O(t),e=this.m,i=e[0],u=e[1];e[0]=i*r+e[2]*n,e[1]=u*r+e[3]*n,e[2]=e[2]*r-i*n,e[3]=e[3]*r-u*n,this.w=this.s=this.i=null}return this}},{key:"scaleSelf",value:function(){var t=arguments.length>0&&void 0!==arguments[0]?arguments[0]:1,n=arguments.length>1&&void 0!==arguments[1]?arguments[1]:1;if(1!==t||1!==n){var r=this.m;r[0]*=t,r[1]*=t,r[2]*=n,r[3]*=n,this.w=this.s=this.i=null}return this}},{key:"skewSelf",value:function(t,n){if(n%=360,(t%=360)||n){var r=this.m,e=r[0],i=r[1],u=r[2],o=r[3];t&&(t=C(t*T),r[2]+=e*t,r[3]+=i*t),n&&(n=C(n*T),r[0]+=u*n,r[1]+=o*n),this.w=this.s=this.i=null}return this}},{key:"resetSelf",value:function(){var t=arguments.length>0&&void 0!==arguments[0]?arguments[0]:1,n=arguments.length>1&&void 0!==arguments[1]?arguments[1]:0,r=arguments.length>2&&void 0!==arguments[2]?arguments[2]:0,e=arguments.length>3&&void 0!==arguments[3]?arguments[3]:1,i=arguments.length>4&&void 0!==arguments[4]?arguments[4]:0,u=arguments.length>5&&void 0!==arguments[5]?arguments[5]:0,o=this.m;return o[0]=t,o[1]=n,o[2]=r,o[3]=e,o[4]=i,o[5]=u,this.w=this.s=this.i=null,this}},{key:"recomposeSelf",value:function(){var t=arguments.length>0&&void 0!==arguments[0]?arguments[0]:null,n=arguments.length>1&&void 0!==arguments[1]?arguments[1]:null,r=arguments.length>2&&void 0!==arguments[2]?arguments[2]:null,e=arguments.length>3&&void 0!==arguments[3]?arguments[3]:null,i=arguments.length>4&&void 0!==arguments[4]?arguments[4]:null;return this.isIdentity||this.resetSelf(),t&&(t.x||t.y)&&this.translateSelf(t.x,t.y),n&&this.rotateSelf(n),r&&(r.x&&this.skewSelf(r.x,0),r.y&&this.skewSelf(0,r.y)),!e||1===e.x&&1===e.y||this.scaleSelf(e.x,e.y),i&&(i.x||i.y)&&this.translateSelf(i.x,i.y),this}},{key:"decompose",value:function(){var t=arguments.length>0&&void 0!==arguments[0]?arguments[0]:0,n=arguments.length>1&&void 0!==arguments[1]?arguments[1]:0,r=this.m,e=r[0]*r[0]+r[1]*r[1],i=[[r[0],r[1]],[r[2],r[3]]],u=D(e);if(0===u)return{origin:{x:r[4],y:r[5]},translate:{x:t,y:n},scale:{x:0,y:0},skew:{x:0,y:0},rotate:0};i[0][0]/=u,i[0][1]/=u;var o=r[0]*r[3]-r[1]*r[2]<0;o&&(u=-u);var a=i[0][0]*i[1][0]+i[0][1]*i[1][1];i[1][0]-=i[0][0]*a,i[1][1]-=i[0][1]*a;var l=D(i[1][0]*i[1][0]+i[1][1]*i[1][1]);if(0===l)return{origin:{x:r[4],y:r[5]},translate:{x:t,y:n},scale:{x:u,y:0},skew:{x:0,y:0},rotate:0};i[1][0]/=l,i[1][1]/=l,a/=l;var f=0;return i[1][1]<0?(f=z(i[1][1])*V,i[0][1]<0&&(f=360-f)):f=L(i[0][1])*V,o&&(f=-f),a=R(a,D(i[0][0]*i[0][0]+i[0][1]*i[0][1]))*V,{origin:{x:r[4],y:r[5]},translate:{x:t,y:n},scale:{x:u,y:l},skew:{x:a,y:0},rotate:f}}},{key:"toString",value:function(){return null===this.s&&(this.s="matrix("+this.m.map($).join(" ")+")"),this.s}},{key:"determinant",get:function(){var t=this.m;return t[0]*t[3]-t[1]*t[2]}},{key:"isIdentity",get:function(){if(null===this.i){var t=this.m;this.i=1===t[0]&&0===t[1]&&0===t[2]&&1===t[3]&&0===t[4]&&0===t[5]}return this.i}}]),t}(),G=/\.0+$/;function $(t){return Number.isInteger(t)?t:t.toFixed(14).replace(G,"")}Object.freeze({M:2,L:2,Z:0,H:1,V:1,C:6,Q:4,T:2,S:4,A:7});function H(t,n,r){return t+(n-t)*r}function Q(t,n,r){var e=arguments.length>3&&void 0!==arguments[3]&&arguments[3],i={x:H(t.x,n.x,r),y:H(t.y,n.y,r)};return e&&(i.a=function(t,n){return Math.atan2(n.y-t.y,n.x-t.x)}(t,n)),i}function U(t,n,r,e){var i=1-e;return i*i*t+2*i*e*n+e*e*r}function Y(t,n,r,e){return 2*(1-e)*(n-t)+2*e*(r-n)}function Z(t,n,r,e){var i=arguments.length>4&&void 0!==arguments[4]&&arguments[4],u={x:U(t.x,n.x,r.x,e),y:U(t.y,n.y,r.y,e)};return i&&(u.a=function(t,n,r,e){return Math.atan2(Y(t.y,n.y,r.y,e),Y(t.x,n.x,r.x,e))}(t,n,r,e)),u}function J(t,n,r,e,i){var u=i*i;return i*u*(e-t+3*(n-r))+3*u*(t+r-2*n)+3*i*(n-t)+t}function K(t,n,r,e,i){var u=1-i;return 3*(u*u*(n-t)+2*u*i*(r-n)+i*i*(e-r))}function W(t,n,r,e,i){var u=arguments.length>5&&void 0!==arguments[5]&&arguments[5],o={x:J(t.x,n.x,r.x,e.x,i),y:J(t.y,n.y,r.y,e.y,i)};return u&&(o.a=function(t,n,r,e,i){return Math.atan2(K(t.y,n.y,r.y,e.y,i),K(t.x,n.x,r.x,e.x,i))}(t,n,r,e,i)),o}function X(t,n,r){var e,i=arguments.length>3&&void 0!==arguments[3]&&arguments[3];if(nt(n)){if(null!=(e=r).start&&!nt(e))return Z(n,r.start,r,t,i)}else if(nt(r)){if(n.end)return Z(n,n.end,r,t,i)}else{if(n.end)return r.start?W(n,n.end,r.start,r,t,i):Z(n,n.end,r,t,i);if(r.start)return Z(n,r.start,r,t,i)}return Q(n,r,t,i)}function tt(t,n,r){var e=X(t,n,r,!0);return e.a=function(t){return arguments.length>1&&void 0!==arguments[1]&&arguments[1]?t+Math.PI:t}(e.a)/h,e}function nt(t){return!t.type||"corner"===t.type}var rt=new N;var et={f:function(t){return t?t.join(" "):""},i:function(n,r,e){if(0===n)return r;if(1===n)return e;var i=r.length;if(i!==e.length)return y(n,r,e);for(var u,o=new Array(i),a=0;a<i;a++){if((u=t(r[a]))!==t(e[a]))return y(n,r,e);if("number"===u)o[a]=d(n,r[a],e[a]);else{if(r[a]!==e[a])return y(n,r,e);o[a]=r[a]}}return o}},it={f:null,i:x,u:function(t,n){return function(r){var e=n(r);t.setAttribute("x1",I(e[0])),t.setAttribute("y1",I(e[1])),t.setAttribute("x2",I(e[2])),t.setAttribute("y2",I(e[3]))}}},ut={f:I,i:d},ot={f:I,i:function(t,n,r){var e=d(t,n,r);return e<=0?0:e>=1?1:e}},at={f:E,i:function(t,n,r){var e,i,u,o=n.length,a=r.length;if(o!==a)if(0===o)n=k(o=a,0);else if(0===a)a=o,r=k(o,0);else{var l=(u=(e=o)*(i=a)/function(t,n){for(var r;n;)r=n,n=t%n,t=r;return t||1}(e,i))<0?-u:u;n=S(n,Math.floor(l/o)),r=S(r,Math.floor(l/a)),o=a=l}for(var f=[],s=0;s<o;s++)f.push(v(g(t,n[s],r[s]),6));return f}};function lt(t,n,r,e,i,u,o,a){return n=function(t,n,r){for(var e,i,u,o=t.length-1,a={},l=0;l<=o;l++)(e=t[l]).e&&(e.e=n(e.e)),e.v&&"g"===(i=e.v).t&&i.r&&(u=r.getElementById(i.r))&&(a[i.r]=u.querySelectorAll("stop"));return a}(t,e,a),function(e){var i,u=r(e,t,ft);return u?"c"===u.t?B(u.v):"g"===u.t?(n[u.r]&&function(t,n){for(var r=0,e=t.length;r<e;r++)t[r].setAttribute("stop-color",B(n[r]))}(n[u.r],u.v),(i=u.r)?"url(#"+i+")":"none"):"none":"none"}}function ft(t,n,r){if(0===t)return n;if(1===t)return r;if(n&&r){var e=n.t;if(e===r.t)switch(n.t){case"c":return{t:e,v:w(t,n.v,r.v)};case"g":if(n.r===r.r)return{t:e,v:A(t,n.v,r.v),r:n.r}}}return y(t,n,r)}var st={blur:p,brightness:g,contrast:g,"drop-shadow":function(t,n,r){return 0===t?n:1===t?r:{blur:p(t,n.blur,r.blur),offset:m(t,n.offset,r.offset),color:w(t,n.color,r.color)}},grayscale:g,"hue-rotate":d,invert:g,opacity:g,saturate:g,sepia:g};function ct(t,n,r){if(0===t)return n;if(1===t)return r;var e=n.length;if(e!==r.length)return y(t,n,r);for(var i,u=[],o=0;o<e;o++){if(n[o].type!==r[o].type)return n;if(!(i=st[n[o].type]))return y(t,n,r);u.push({type:n.type,value:i(t,n[o].value,r[o].value)})}return u}var vt={blur:function(t){return t?function(n){t.setAttribute("stdDeviation",F(n))}:null},brightness:function(t,n,r){return(t=yt(r,n))?function(n){n=I(n),t.map((function(t){return t.setAttribute("slope",n)}))}:null},contrast:function(t,n,r){return(t=yt(r,n))?function(n){var r=I((1-n)/2);n=I(n),t.map((function(t){t.setAttribute("slope",n),t.setAttribute("intercept",r)}))}:null},"drop-shadow":function(t,n,r){var e=r.getElementById(n+"-blur");if(!e)return null;var i=r.getElementById(n+"-offset");if(!i)return null;var u=r.getElementById(n+"-flood");return u?function(t){e.setAttribute("stdDeviation",F(t.blur)),i.setAttribute("dx",I(t.offset.x)),i.setAttribute("dy",I(t.offset.y)),u.setAttribute("flood-color",B(t.color))}:null},grayscale:function(t){return t?function(n){t.setAttribute("values",E(function(t){return[.2126+.7874*(t=1-t),.7152-.7152*t,.0722-.0722*t,0,0,.2126-.2126*t,.7152+.2848*t,.0722-.0722*t,0,0,.2126-.2126*t,.7152-.7152*t,.0722+.9278*t,0,0,0,0,0,1,0]}(n)))}:null},"hue-rotate":function(t){return t?function(n){return t.setAttribute("values",I(n))}:null},invert:function(t,n,r){return(t=yt(r,n))?function(n){n=I(n)+" "+I(1-n),t.map((function(t){return t.setAttribute("tableValues",n)}))}:null},opacity:function(t,n,r){return(t=r.getElementById(n+"-A"))?function(n){return t.setAttribute("tableValues","0 "+I(n))}:null},saturate:function(t){return t?function(n){return t.setAttribute("values",I(n))}:null},sepia:function(t){return t?function(n){return t.setAttribute("values",E(function(t){return[.393+.607*(t=1-t),.769-.769*t,.189-.189*t,0,0,.349-.349*t,.686+.314*t,.168-.168*t,0,0,.272-.272*t,.534-.534*t,.131+.869*t,0,0,0,0,0,1,0]}(n)))}:null}};var ht=["R","G","B"];function yt(t,n){var r=ht.map((function(r){return t.getElementById(n+"-"+r)||null}));return-1!==r.indexOf(null)?null:r}var dt={fill:lt,"fill-opacity":ot,stroke:lt,"stroke-opacity":ot,"stroke-width":ut,"stroke-dashoffset":{f:I,i:d},"stroke-dasharray":at,opacity:ot,transform:function(n,r,e,i){if(!(n=function(n,r){if(!n||"object"!==t(n))return null;var e=!1;for(var i in n)n.hasOwnProperty(i)&&(n[i]&&n[i].length?(n[i].forEach((function(t){t.e&&(t.e=r(t.e))})),e=!0):delete n[i]);return e?n:null}(n,i)))return null;var u=function(t,i,u){var o=arguments.length>3&&void 0!==arguments[3]?arguments[3]:null;return n[t]?e(i,n[t],u):r&&r[t]?r[t]:o};return r&&r.a&&n.o?function(t){var r=e(t,n.o,tt);return rt.recomposeSelf(r,u("r",t,d,0)+r.a,u("k",t,m),u("s",t,m),u("t",t,m)).toString()}:function(t){return rt.recomposeSelf(u("o",t,X,null),u("r",t,d,0),u("k",t,m),u("s",t,m),u("t",t,m)).toString()}},"#filter":function(t,n,r,e,i,u,o,a){if(!n.items||!t||!t.length)return null;var l=function(t,n){var r=(t=t.map((function(t){return t&&vt[t[0]]?(n.getElementById(t[1]),vt[t[0]](n.getElementById(t[1]),t[1],n)):null}))).length;return function(n){for(var e=0;e<r;e++)t[e]&&t[e](n[e].value)}}(n.items,a);return l?(t=function(t,n){return t.map((function(t){return t.e=n(t.e),t}))}(t,e),function(n){l(r(n,t,ct))}):null},"#line":it,points:{f:E,i:x},d:et,r:ut,"#size":q,"#radius":j,_:function(t,n){if(Array.isArray(t))for(var r=0;r<t.length;r++)this[t[r]]=n;else this[t]=n}},gt=function(){function t(r){n(this,t),this.list=r,this.length=r.length}return e(t,[{key:"setAttribute",value:function(t,n){for(var r=this.list,e=0;e<this.length;e++)r[e].setAttribute(t,n)}},{key:"removeAttribute",value:function(t){for(var n=this.list,r=0;r<this.length;r++)n[r].removeAttribute(t)}},{key:"style",value:function(t,n){for(var r=this.list,e=0;e<this.length;e++)r[e].style[t]=n}}]),t}(),mt=/-./g,pt=function(t,n){return n.toUpperCase()};function bt(t){return"function"==typeof t?t:y}function wt(t){return t?"function"==typeof t?t:Array.isArray(t)?function(t){var n=arguments.length>1&&void 0!==arguments[1]?arguments[1]:o;if(!Array.isArray(t))return n;switch(t.length){case 1:return c(t[0])||n;case 2:return c(t[0],t[1])||n;case 4:return l(t[0],t[1],t[2],t[3])||n}return n}(t,null):function(t,n){var r=arguments.length>2&&void 0!==arguments[2]?arguments[2]:o;switch(t){case"linear":return o;case"steps":return c(n.steps||1,n.jump||0)||r;case"bezier":case"cubic-bezier":return l(n.x1||0,n.y1||0,n.x2||0,n.y2||0)||r}return r}(t.type,t.value,null):null}function At(t,n,r){var e=arguments.length>3&&void 0!==arguments[3]&&arguments[3],i=n.length-1;if(t<=n[0].t)return e?[0,0,n[0].v]:n[0].v;if(t>=n[i].t)return e?[i,1,n[i].v]:n[i].v;var u,o=n[0],a=null;for(u=1;u<=i;u++){if(!(t>n[u].t)){a=n[u];break}o=n[u]}return null==a?e?[i,1,n[i].v]:n[i].v:o.t===a.t?e?[u,1,a.v]:a.v:(t=(t-o.t)/(a.t-o.t),o.e&&(t=o.e(t)),e?[u,t,r(t,o.v,a.v)]:r(t,o.v,a.v))}function xt(t,n){var r=arguments.length>2&&void 0!==arguments[2]?arguments[2]:null;return t&&t.length?"function"!=typeof n?null:("function"!=typeof r&&(r=null),function(e){var i=At(e,t,n);return null!=i&&r&&(i=r(i)),i}):null}function kt(t,n){return t.t-n.t}function St(n,r,e,i,u){var o,a="@"===e[0],l="#"===e[0],f=dt[e],s=y;switch(a?(o=e.substr(1),e=o.replace(mt,pt)):l&&(e=e.substr(1)),t(f)){case"function":if(s=f(i,u,At,wt,e,a,r,n),l)return s;break;case"string":s=xt(i,bt(f));break;case"object":if((s=xt(i,bt(f.i),f.f))&&"function"==typeof f.u)return f.u(r,s,e,a,n)}return s?function(t,n,r){if(arguments.length>3&&void 0!==arguments[3]&&arguments[3])return t instanceof gt?function(e){return t.style(n,r(e))}:function(e){return t.style[n]=r(e)};if(Array.isArray(n)){var e=n.length;return function(i){var u=r(i);if(null==u)for(var o=0;o<e;o++)t[o].removeAttribute(n);else for(var a=0;a<e;a++)t[a].setAttribute(n,u)}}return function(e){var i=r(e);null==i?t.removeAttribute(n):t.setAttribute(n,i)}}(r,e,s,a):null}function _t(n,r,e,i){if(!i||"object"!==t(i))return null;var u=null,o=null;return Array.isArray(i)?o=function(t){if(!t||!t.length)return null;for(var n=0;n<t.length;n++)t[n].e&&(t[n].e=wt(t[n].e));return t.sort(kt)}(i):(o=i.keys,u=i.data||null),o?St(n,r,e,o,u):null}function Mt(t,n,r){if(!r)return null;var e=[];for(var i in r)if(r.hasOwnProperty(i)){var u=_t(t,n,i,r[i]);u&&e.push(u)}return e.length?e:null}function It(t,n){if(!n.duration||n.duration<0)return null;var r=function(t,n){if(!n)return null;var r=[];if(Array.isArray(n))for(var e=n.length,i=0;i<e;i++){var u=n[i];if(2===u.length){var o=null;if("string"==typeof u[0])o=t.getElementById(u[0]);else if(Array.isArray(u[0])){o=[];for(var a=0;a<u[0].length;a++)if("string"==typeof u[0][a]){var l=t.getElementById(u[0][a]);l&&o.push(l)}o=o.length?1===o.length?o[0]:new gt(o):null}if(o){var f=Mt(t,o,u[1]);f&&(r=r.concat(f))}}}else for(var s in n)if(n.hasOwnProperty(s)){var c=t.getElementById(s);if(c){var v=Mt(t,c,n[s]);v&&(r=r.concat(v))}}return r.length?r:null}(t,n.elements);return r?function(t,n){var r=arguments.length>2&&void 0!==arguments[2]?arguments[2]:1/0,e=arguments.length>3&&void 0!==arguments[3]?arguments[3]:1,i=arguments.length>4&&void 0!==arguments[4]&&arguments[4],u=arguments.length>5&&void 0!==arguments[5]?arguments[5]:1,o=t.length,a=e>0?n:0;i&&r%2==0&&(a=n-a);var l=null;return function(f,s){var c=f%n,v=1+(f-c)/n;s*=e,i&&v%2==0&&(s=-s);var h=!1;if(v>r)c=a,h=!0,-1===u&&(c=e>0?0:n);else if(s<0&&(c=n-c),c===l)return!1;l=c;for(var y=0;y<o;y++)t[y](c);return h}}(r,n.duration,n.iterations||1/0,n.direction||1,!!n.alternate,n.fill||1):null}var Et=function(){function t(r){var e=arguments.length>1&&void 0!==arguments[1]?arguments[1]:{};n(this,t),this._id=0,this._running=!1,this._animations=r,this.direction=e.direction||1,this.speed=e.speed||1,this.fps=e.fps||100,this.offset=e.offset||0}return e(t,[{key:"_start",value:function(){var t=this,n=arguments.length>0&&void 0!==arguments[0]?arguments[0]:0,r=-1/0,e=null,i={},u=function u(o){t._running=!0,null==e&&(e=o);var a=Math.round((o-e+n)*t.speed),l=t.fps?1e3/t.fps:0;if(a>r+l){t.offset=a,r=a;for(var f=t._animations,s=f.length,c=0,v=0;v<s;v++)i[v]?c++:(i[v]=f[v](a,t.direction),i[v]&&c++);if(c===s)return void t._stop()}t._id=window.requestAnimationFrame(u)};this._id=window.requestAnimationFrame(u)}},{key:"_stop",value:function(){this._id&&window.cancelAnimationFrame(this._id),this._running=!1}},{key:"play",value:function(){this._running||this._start(this.offset)}},{key:"stop",value:function(){this._stop(),this.offset=0;var t=this.direction,n=this._animations;requestAnimationFrame((function(){for(var r=0;r<n.length;r++)n[r](0,t)}))}},{key:"restart",value:function(){this._stop(),this.offset=0,this._start()}},{key:"pause",value:function(){this._stop()}},{key:"reverse",value:function(){this.direction=-this.direction}}],[{key:"build",value:function(n){if(!(n=function(t){if(!t||!t.root||!Array.isArray(t.animations))return null;var n=window.document.getElementById(t.root);if(!n)return null;var r=t.animations.map((function(t){return It(n,t)})).filter((function(t){return!!t}));return r.length?{element:n,animations:r,options:t.options||void 0}:null}(n)))return null;var r=n.element,e=n.options||{},i=new t(n.animations,n.options);return function(t,n,r){var e=arguments.length>3&&void 0!==arguments[3]?arguments[3]:null;if("click"===r){return void n.addEventListener("click",(function r(){n.removeEventListener("click",r),t.play()}))}if("hover"===r)return n.addEventListener("mouseenter",(function(){return t.play()})),void n.addEventListener("mouseleave","freeze"===e?function(){return t.pause()}:function(){return t.stop()});t.play()}(i,r,e.start,e.hover),i}}]),t}();return function(){for(var t=0,n=["ms","moz","webkit","o"],r=0;r<n.length&&!window.requestAnimationFrame;++r)window.requestAnimationFrame=window[n[r]+"RequestAnimationFrame"],window.cancelAnimationFrame=window[n[r]+"CancelAnimationFrame"]||window[n[r]+"CancelRequestAnimationFrame"];window.requestAnimationFrame||(window.requestAnimationFrame=function(n){var r=Date.now(),e=Math.max(0,16-(r-t)),i=window.setTimeout((function(){n(r+e)}),e);return t=r+e,i},window.cancelAnimationFrame=window.clearTimeout)}(),Et}));
__SVGATOR_PLAYER__.build({"root":"ehw4i6ai7ww81","animations":[{"duration":5000,"direction":1,"iterations":1,"fill":1,"alternate":false,"elements":{"ehw4i6ai7ww82":{"d":[{"t":2400,"v":["M",523.002283,530.941237,"C",563.5322830000001,709.9212370000001,604.668578,481.82645299999996,645.138578,660.836453,"C",634.128578,661.006453,623.108578,661.116453,612.098578,661.216453,"C",582.608578,529.496453,557.415127,764.760967,523.002283,630.629545,"C",493.422283,762.2395449999999,464.498578,529.246453,434.858578,660.846453,"C",423.808578,660.836453,412.768578,660.846453,401.718578,660.836453,"C",442.328578,481.81645299999997,482.38228300000003,709.9612370000001,523.002283,530.941237,"Z"]},{"t":4400,"v":["M",526.15,121.34503099999995,"C",566.68,300.32503099999997,607.1,479.39503099999996,647.57,658.405031,"C",636.56,658.575031,625.54,658.685031,614.53,658.785031,"C",585.04,527.065031,555.68,395.29503099999994,526.13,263.59503099999995,"C",496.55,395.20503099999996,466.93,526.815031,437.29,658.415031,"C",426.24,658.405031,415.2,658.415031,404.15,658.405031,"C",444.76,479.38503099999997,485.53,300.36503099999993,526.15,121.34503099999995,"Z"]}],"fill-opacity":[{"t":2400,"v":0},{"t":3300,"v":1}],"stroke-opacity":[{"t":2400,"v":0},{"t":3300,"v":1}]},"ehw4i6ai7ww83":{"stroke-opacity":[{"t":100,"v":0},{"t":300,"v":1}],"stroke-dashoffset":[{"t":100,"v":-145.89},{"t":300,"v":0}]},"ehw4i6ai7ww84":{"stroke-opacity":[{"t":400,"v":0},{"t":600,"v":1}],"stroke-dashoffset":[{"t":400,"v":-129.31},{"t":600,"v":0}]},"ehw4i6ai7ww85":{"stroke-opacity":[{"t":700,"v":0},{"t":900,"v":1}],"stroke-dashoffset":[{"t":700,"v":310.35},{"t":900,"v":0}]},"ehw4i6ai7ww86":{"stroke-opacity":[{"t":900,"v":0},{"t":1200,"v":1}],"stroke-dashoffset":[{"t":930,"v":152.32},{"t":1200,"v":0}]},"ehw4i6ai7ww87":{"stroke-opacity":[{"t":1300,"v":0},{"t":1600,"v":1}],"stroke-dashoffset":[{"t":1300,"v":100.8},{"t":1500,"v":0}]},"ehw4i6ai7ww88":{"fill-opacity":[{"t":1600,"v":0},{"t":1900,"v":1}],"stroke-opacity":[{"t":1600,"v":0},{"t":1900,"v":1}],"stroke-dashoffset":[{"t":1600,"v":267.59},{"t":1900,"v":0}]},"ehw4i6ai7ww89":{"fill-opacity":[{"t":1900,"v":0},{"t":2300,"v":0}],"stroke-opacity":[{"t":1900,"v":0},{"t":2300,"v":1}],"stroke-dashoffset":[{"t":1900,"v":232.42},{"t":2300,"v":0}]},"ehw4i6ai7ww812":{"stroke-opacity":[{"t":1200,"v":0},{"t":1500,"v":1}],"stroke-dashoffset":[{"t":1200,"v":65.13},{"t":1500,"v":0}]},"ehw4i6ai7ww813":{"opacity":[{"t":2600,"v":0},{"t":3300,"v":1}]},"ehw4i6ai7ww814":{"opacity":[{"t":2600,"v":0},{"t":3300,"v":1}]},"ehw4i6ai7ww815":{"opacity":[{"t":2600,"v":0},{"t":3300,"v":1}]},"ehw4i6ai7ww816":{"opacity":[{"t":2600,"v":0},{"t":3300,"v":1}]},"ehw4i6ai7ww817":{"opacity":[{"t":2600,"v":0},{"t":3300,"v":1}]},"ehw4i6ai7ww818":{"opacity":[{"t":2600,"v":0},{"t":3300,"v":1}]},"ehw4i6ai7ww819":{"opacity":[{"t":2600,"v":0},{"t":3300,"v":1}]},"ehw4i6ai7ww820":{"opacity":[{"t":2600,"v":0},{"t":3300,"v":1}]},"ehw4i6ai7ww821":{"opacity":[{"t":2600,"v":0},{"t":3300,"v":1}]},"ehw4i6ai7ww822":{"opacity":[{"t":2600,"v":0},{"t":3300,"v":1}]},"ehw4i6ai7ww823":{"opacity":[{"t":2600,"v":0},{"t":3300,"v":1}]},"ehw4i6ai7ww824":{"opacity":[{"t":2600,"v":0},{"t":3300,"v":1}]},"ehw4i6ai7ww825":{"opacity":[{"t":2600,"v":0},{"t":3300,"v":1}]},"ehw4i6ai7ww827":{"opacity":[{"t":3400,"v":0},{"t":4300,"v":1}],"fill":[{"t":3400,"v":{"t":"c","v":{"r":205,"g":198,"b":170,"a":1}}},{"t":4300,"v":{"t":"c","v":{"r":190,"g":166,"b":77,"a":1}}}]}}}],"options":{"start":"load","hover":"restart"}})]]></script></svg>